<svg width="36" height="36" viewBox="0 0 36 36" fill="none" xmlns="http://www.w3.org/2000/svg">
<g clip-path="url(#clip0_280_1259)">
<path d="M35.0525 17.9999C35.0525 8.58199 27.4178 0.947266 17.9999 0.947266C8.58199 0.947266 0.947266 8.58199 0.947266 17.9999C0.947266 27.4178 8.58199 35.0525 17.9999 35.0525C27.4178 35.0525 35.0525 27.4178 35.0525 17.9999Z" stroke="white" stroke-width="2" stroke-linecap="round" stroke-dasharray="10 4"/>
<path d="M25.5789 17.0527H23.6842C23.4158 17.0527 23.1909 16.9618 23.0096 16.7799C22.8284 16.598 22.7375 16.3732 22.7368 16.1054C22.7368 15.837 22.8277 15.6121 23.0096 15.4308C23.1915 15.2496 23.4163 15.1586 23.6842 15.158H25.5789V13.2632C25.5789 12.9949 25.6698 12.77 25.8517 12.5887C26.0336 12.4075 26.2584 12.3165 26.5263 12.3159C26.7947 12.3159 27.0198 12.4068 27.2017 12.5887C27.3836 12.7706 27.4743 12.9954 27.4736 13.2632V15.158H29.3684C29.6368 15.158 29.8619 15.2489 30.0438 15.4308C30.2257 15.6127 30.3164 15.8375 30.3157 16.1054C30.3157 16.3737 30.2248 16.5989 30.0429 16.7808C29.861 16.9627 29.6362 17.0534 29.3684 17.0527H27.4736V18.9475C27.4736 19.2158 27.3827 19.441 27.2008 19.6229C27.0189 19.8048 26.7941 19.8955 26.5263 19.8948C26.2579 19.8948 26.033 19.8039 25.8517 19.622C25.6705 19.4401 25.5796 19.2153 25.5789 18.9475V17.0527ZM17.0526 18.0001C16.0105 18.0001 15.1183 17.629 14.3763 16.8869C13.6342 16.1449 13.2631 15.2527 13.2631 14.2106C13.2631 13.1685 13.6342 12.2764 14.3763 11.5343C15.1183 10.7922 16.0105 10.4211 17.0526 10.4211C18.0947 10.4211 18.9868 10.7922 19.7289 11.5343C20.471 12.2764 20.8421 13.1685 20.8421 14.2106C20.8421 15.2527 20.471 16.1449 19.7289 16.8869C18.9868 17.629 18.0947 18.0001 17.0526 18.0001ZM9.47363 23.6843V22.9264C9.47363 22.3895 9.61195 21.8963 9.88858 21.4466C10.1652 20.9969 10.5321 20.6534 10.9894 20.4159C11.9683 19.9264 12.9631 19.5595 13.9736 19.315C14.9842 19.0706 16.0105 18.9481 17.0526 18.9475C18.0947 18.9475 19.121 19.07 20.1315 19.315C21.1421 19.5601 22.1368 19.927 23.1157 20.4159C23.5736 20.6527 23.9409 20.9963 24.2175 21.4466C24.4942 21.8969 24.6322 22.3902 24.6315 22.9264V23.6843C24.6315 24.2054 24.4461 24.6516 24.0754 25.0229C23.7047 25.3943 23.2585 25.5797 22.7368 25.579H11.3684C10.8473 25.579 10.4014 25.3936 10.0307 25.0229C9.65998 24.6522 9.4743 24.206 9.47363 23.6843ZM11.3684 23.6843H22.7368V22.9264C22.7368 22.7528 22.6935 22.5948 22.607 22.4527C22.5205 22.3106 22.4059 22.2001 22.2631 22.1211C21.4105 21.6948 20.55 21.3753 19.6815 21.1624C18.8131 20.9495 17.9368 20.8429 17.0526 20.8422C16.1684 20.8422 15.2921 20.949 14.4236 21.1624C13.5552 21.3758 12.6947 21.6955 11.8421 22.1211C11.6999 22.2001 11.5853 22.3106 11.4982 22.4527C11.411 22.5948 11.3677 22.7528 11.3684 22.9264V23.6843ZM17.0526 16.1054C17.5736 16.1054 18.0198 15.92 18.3912 15.5492C18.7626 15.1785 18.948 14.7323 18.9473 14.2106C18.9473 13.6896 18.7619 13.2436 18.3912 12.8729C18.0205 12.5022 17.5743 12.3165 17.0526 12.3159C16.5315 12.3159 16.0856 12.5016 15.7149 12.8729C15.3442 13.2443 15.1585 13.6902 15.1578 14.2106C15.1578 14.7317 15.3435 15.1779 15.7149 15.5492C16.0863 15.9206 16.5322 16.106 17.0526 16.1054Z" fill="white"/>
</g>
<defs>
<clipPath id="clip0_280_1259">
<rect width="36" height="36" fill="white"/>
</clipPath>
</defs>
</svg>
