<svg width="26" height="26" viewBox="0 0 26 26" fill="none" xmlns="http://www.w3.org/2000/svg">
<path d="M20.2544 13.4354L17.0044 19.0646C16.1424 20.5575 14.7227 21.6469 13.0576 22.0931C11.3924 22.5393 9.61818 22.3057 8.12523 21.4437C6.63228 20.5818 5.54289 19.162 5.09671 17.4969C4.65053 15.8317 4.88411 14.0575 5.74606 12.5646L10.0794 5.05901C10.654 4.06371 11.6005 3.33745 12.7106 3.03999C13.8207 2.74254 15.0035 2.89826 15.9988 3.4729C16.9941 4.04753 17.7204 4.99401 18.0179 6.10412C18.3153 7.21424 18.1596 8.39704 17.585 9.39234L13.2516 16.8979C12.9643 17.3955 12.4911 17.7587 11.936 17.9074C11.3809 18.0561 10.7895 17.9783 10.2919 17.6909C9.79425 17.4036 9.43112 16.9304 9.28239 16.3753C9.13366 15.8203 9.21152 15.2289 9.49884 14.7312L13.8322 7.22567" stroke="#434B61" stroke-width="2" stroke-linecap="round" stroke-linejoin="round"/>
</svg>
