<svg width="36" height="36" viewBox="0 0 36 36" fill="none" xmlns="http://www.w3.org/2000/svg">
<path d="M25.5016 17.3805L25.5016 11.553C25.5018 10.9371 25.3124 10.3362 24.9593 9.83167C24.6061 9.32717 24.1063 8.94357 23.5276 8.73296L8.01459 3.09296C7.46709 2.89346 6.85359 3.02996 6.44109 3.44096L6.00159 3.88046L15.6346 13.5135C15.6736 13.512 15.7126 13.5015 15.7516 13.5015C16.1966 13.5015 16.6316 13.6334 17.0016 13.8807C17.3716 14.1279 17.66 14.4793 17.8303 14.8904C18.0006 15.3016 18.0452 15.754 17.9584 16.1904C17.8715 16.6269 17.6572 17.0278 17.3426 17.3424C17.0279 17.6571 16.627 17.8714 16.1905 17.9582C15.7541 18.045 15.3017 18.0005 14.8906 17.8302C14.4794 17.6599 14.128 17.3715 13.8808 17.0015C13.6335 16.6315 13.5016 16.1965 13.5016 15.7515C13.5016 15.7125 13.5121 15.6735 13.5136 15.6345L3.88059 6.00146L3.44109 6.44096C3.2389 6.64264 3.09868 6.89799 3.03702 7.17683C2.97535 7.45566 2.99481 7.74633 3.09309 8.01446L8.73459 23.5275C8.9452 24.1061 9.3288 24.606 9.8333 24.9592C10.3378 25.3123 10.9388 25.5016 11.5546 25.5015L17.3821 25.5015L20.3791 28.5L28.5001 20.379L25.5016 17.3805ZM22.4086 29.91L29.9086 22.41L33.0901 25.59L25.5901 33.09L22.4086 29.91Z" fill="white"/>
</svg>
