<svg width="26" height="26" viewBox="0 0 26 26" fill="none" xmlns="http://www.w3.org/2000/svg">
<path d="M5.95817 2.16663C3.8565 2.16663 2.1665 3.85663 2.1665 5.95829V20.0416C2.1665 22.1433 3.8565 23.8333 5.95817 23.8333H17.3332L23.8332 17.3333V5.95829C23.8332 3.85663 22.1432 2.16663 20.0415 2.16663H5.95817ZM6.229 4.33329H19.7707C20.2735 4.33329 20.7557 4.53303 21.1112 4.88857C21.4668 5.24411 21.6665 5.72632 21.6665 6.22913V16.25H20.0415C17.9398 16.25 16.2498 17.94 16.2498 20.0416V21.6666H6.229C5.7262 21.6666 5.24398 21.4669 4.88845 21.1113C4.53291 20.7558 4.33317 20.2736 4.33317 19.7708V6.22913C4.33317 5.72632 4.53291 5.24411 4.88845 4.88857C5.24398 4.53303 5.7262 4.33329 6.229 4.33329ZM15.6432 7.33413C15.4698 7.33413 15.2965 7.35579 15.134 7.39913C14.1157 7.68079 13.5415 8.72079 13.8015 9.74996C13.8557 9.91246 13.9315 10.075 14.029 10.2266L17.5282 9.27329C17.5282 9.08913 17.5065 8.90496 17.4632 8.72079C17.2357 7.90829 16.4882 7.33413 15.6432 7.33413ZM8.85067 9.20829C8.6665 9.20829 8.504 9.20829 8.3415 9.26246C7.334 9.54413 6.73817 10.5841 7.009 11.5916C7.0415 11.765 7.139 11.9166 7.2365 12.09L10.7357 11.1366C10.7357 10.9525 10.714 10.7683 10.6707 10.595C10.5647 10.1944 10.3282 9.84051 9.99857 9.58938C9.66896 9.33824 9.26503 9.20415 8.85067 9.20829ZM18.1132 12.1983L8.22234 14.9175C8.92474 15.7303 9.84238 16.3283 10.8696 16.6426C11.8969 16.9569 12.992 16.9747 14.029 16.6941C15.0637 16.4047 15.9957 15.8293 16.7181 15.034C17.4406 14.2388 17.9241 13.2559 18.1132 12.1983Z" fill="#434B61"/>
</svg>
