<svg width="26" height="26" viewBox="0 0 26 26" fill="none" xmlns="http://www.w3.org/2000/svg">
<path d="M22.0241 3.9758C21.8192 3.77231 21.5621 3.62926 21.2811 3.56237C21.0002 3.49548 20.7062 3.50733 20.4316 3.59663L4.58243 8.8833C4.28849 8.97644 4.02875 9.1546 3.836 9.39527C3.64326 9.63595 3.52616 9.92835 3.4995 10.2355C3.47283 10.5427 3.5378 10.8509 3.6862 11.1212C3.8346 11.3915 4.05977 11.6117 4.33326 11.7541L10.9091 15.0041L14.1591 21.6016C14.2897 21.8599 14.4896 22.0767 14.7364 22.2278C14.9832 22.379 15.2672 22.4585 15.5566 22.4575H15.6649C15.9749 22.4346 16.2708 22.3191 16.5142 22.1259C16.7576 21.9327 16.9373 21.6708 17.0299 21.3741L22.3924 5.5683C22.4882 5.29522 22.5044 5.00057 22.4392 4.71864C22.374 4.4367 22.23 4.17909 22.0241 3.9758ZM5.2541 10.3783L19.0883 5.7633L11.4074 13.4441L5.2541 10.3783ZM15.6324 20.7458L12.5558 14.5925L20.2366 6.91163L15.6324 20.7458Z" fill="#434B61"/>
</svg>
