<svg width="36" height="36" viewBox="0 0 36 36" fill="none" xmlns="http://www.w3.org/2000/svg">
<path d="M7.5 9H9.75" stroke="white" stroke-width="1.5" stroke-linecap="round" stroke-linejoin="round"/>
<path d="M12 11.25C11.4033 11.25 10.831 11.0129 10.409 10.591C9.98705 10.169 9.75 9.59674 9.75 9C9.75 8.40326 9.98705 7.83097 10.409 7.40901C10.831 6.98705 11.4033 6.75 12 6.75C12.2955 6.75 12.5881 6.8082 12.861 6.92127C13.134 7.03434 13.3821 7.20008 13.591 7.40901C13.7999 7.61794 13.9657 7.86598 14.0787 8.13896C14.1918 8.41194 14.25 8.70453 14.25 9C14.25 9.29547 14.1918 9.58805 14.0787 9.86104C13.9657 10.134 13.7999 10.3821 13.591 10.591C13.3821 10.7999 13.134 10.9657 12.861 11.0787C12.5881 11.1918 12.2955 11.25 12 11.25Z" stroke="white" stroke-width="1.5" stroke-linecap="round" stroke-linejoin="round"/>
<path d="M14.25 9L28.5 9.00003" stroke="white" stroke-width="1.5" stroke-linecap="round" stroke-linejoin="round"/>
<path d="M28.5 18H23.25" stroke="white" stroke-width="1.5" stroke-linecap="round" stroke-linejoin="round"/>
<path d="M21 20.25C21.5967 20.25 22.169 20.0129 22.591 19.591C23.0129 19.169 23.25 18.5967 23.25 18C23.25 17.4033 23.0129 16.831 22.591 16.409C22.169 15.9871 21.5967 15.75 21 15.75C20.4033 15.75 19.831 15.9871 19.409 16.409C18.9871 16.831 18.75 17.4033 18.75 18C18.75 18.5967 18.9871 19.169 19.409 19.591C19.831 20.0129 20.4033 20.25 21 20.25Z" stroke="white" stroke-width="1.5" stroke-linecap="round" stroke-linejoin="round"/>
<path d="M18.75 18L7.5 18" stroke="white" stroke-width="1.5" stroke-linecap="round" stroke-linejoin="round"/>
<path d="M7.5 27H9.75" stroke="white" stroke-width="1.5" stroke-linecap="round" stroke-linejoin="round"/>
<path d="M12 29.25C11.4033 29.25 10.831 29.0129 10.409 28.591C9.98705 28.169 9.75 27.5967 9.75 27C9.75 26.4033 9.98705 25.831 10.409 25.409C10.831 24.9871 11.4033 24.75 12 24.75C12.2955 24.75 12.5881 24.8082 12.861 24.9213C13.134 25.0343 13.3821 25.2001 13.591 25.409C13.7999 25.6179 13.9657 25.866 14.0787 26.139C14.1918 26.4119 14.25 26.7045 14.25 27C14.25 27.2955 14.1918 27.5881 14.0787 27.861C13.9657 28.134 13.7999 28.3821 13.591 28.591C13.3821 28.7999 13.134 28.9657 12.861 29.0787C12.5881 29.1918 12.2955 29.25 12 29.25Z" stroke="white" stroke-width="1.5" stroke-linecap="round" stroke-linejoin="round"/>
<path d="M14.25 27L28.5 27" stroke="white" stroke-width="1.5" stroke-linecap="round" stroke-linejoin="round"/>
</svg>
